<svg id="Layer_1" data-name="Layer 1" xmlns="http://www.w3.org/2000/svg" viewBox="0 0 267 45"><defs><style>.cls-1{fill:#e9c46a;}.cls-2{isolation:isolate;}</style></defs><g id="Group_36" data-name="Group 36"><rect id="Rectangle_14" data-name="Rectangle 14" class="cls-1" width="267" height="45" rx="10"/><g id="Group_33" data-name="Group 33"><path id="Icon_awesome-chevron-circle-right" data-name="Icon awesome-chevron-circle-right" d="M345.6,209.33a10.33,10.33,0,1,1-10.32,10.33,10.33,10.33,0,0,1,10.32-10.33Zm4.75,9.62-5.64-5.64a1,1,0,0,0-1.42,0l-.7.71a1,1,0,0,0,0,1.41l4.23,4.23-4.23,4.22a1,1,0,0,0,0,1.41l.7.71a1,1,0,0,0,1.42,0l5.64-5.64a1,1,0,0,0,0-1.41h0Z" transform="translate(-131.55 -196.97)"/><g id="Wissen_testen" data-name="Wissen testen" class="cls-2"><g class="cls-2"><path d="M162,216.66l-.36,5.81-.11,3.45-1.6-.07L158,221.76l-1.58-2.9-2.31-4.05-.37,2.09-.22,4-.09,4.33-1.21.13.15-6.42.18-6.3,2.4-.19,2.11,3.14,3.25,5.7.2-1.58.11-3,.42-4.27,1.25.05Z" transform="translate(-131.55 -196.97)"/><path d="M174.45,226l-1.76,0,0-1.1-.4,0s-1.89,1.49-3.3,1.4c-1.67-.08-3.3,0-3.47-2.55a7.17,7.17,0,0,1,1.18-4.53,3.73,3.73,0,0,1,3.22-1.72c1.4,0,3.3,1.45,3.3,1.45l.24-1.56,1,0,.11,4Zm-2.73-4.4-.08-2-.93-.93s-2.2-.44-3.12.93a3.65,3.65,0,0,0-.93,2.68c.14,2.51,1.19,2.95,2.38,2.95a10.34,10.34,0,0,0,2.68-1.23Zm-3.85-8a.64.64,0,0,1-.37-.75.68.68,0,0,1,.9-.33.6.6,0,0,1,.31.86A.64.64,0,0,1,167.87,213.58Zm4,0a1,1,0,0,1-.33-1.05.68.68,0,0,1,.9-.33.59.59,0,0,1,.31.86C172.65,213.31,172.23,213.71,171.92,213.55Z" transform="translate(-131.55 -196.97)"/><path d="M186.53,219.25a27.51,27.51,0,0,0-3.67,0c-1.77.2-3.2.62-3.22,2.09a2.1,2.1,0,0,0,1,1.74,7.42,7.42,0,0,0,.62.49c1.59,1.21,5.13.48,5.17.46l-.15,1.45a11.4,11.4,0,0,1-3.52.48,4.89,4.89,0,0,1-3.26-1.14,3.87,3.87,0,0,1-1.45-3,4.06,4.06,0,0,1,2-3.65,5.42,5.42,0,0,1,3.5-.9,14.1,14.1,0,0,1,3.39.53Z" transform="translate(-131.55 -196.97)"/><path d="M197,226.12l-.3-3.15a2.3,2.3,0,0,0-2.34-2.29c-1.34.11-1.84,1.54-1.89,2.8l0,2.55-1.54,0-.18-3v-4l.07-3.52.2-3.7,1.36-.26-.07,2.48-.06,2.88,0,3.17c1.32-.48,1.76-1.45,3.14-1.19a2.93,2.93,0,0,1,2.42,1.61l.13,5.41Z" transform="translate(-131.55 -196.97)"/><path d="M205.93,226.21a7.22,7.22,0,0,1-4.35-1.74l.35-1.26c.9.82,2.75,2,4,2a2,2,0,0,0,2-1.74c0-.79-1-1.39-1.63-1.76-1.38-.88-2.95-.24-2.95-2.6a3,3,0,0,1,3-2.84,4.66,4.66,0,0,1,2,.66l-.51,1.74a3.4,3.4,0,0,0-1.7-.83,1.57,1.57,0,0,0-1.51,1.51c0,1.32,4.38.91,4.38,4.47C208.93,225.46,207.36,226.21,205.93,226.21Z" transform="translate(-131.55 -196.97)"/><path d="M216.58,225.88c-1.39.06-1.36-.53-1.43-1.52a21.89,21.89,0,0,1-.15-2.44l.06-3.35-2.57-.11.06-1.17,1.63.09,1.52,0v0l.09-3.55H217l.07,3.28,1.69.18.11,1.17-1.91.15-.18,4c.11.6-.22,1.34.29,1.65s1.47.09,1.94.18l.06,1.34A9.73,9.73,0,0,1,216.58,225.88Z" transform="translate(-131.55 -196.97)"/><path d="M228,220h-4c0,1.36-.39,2.22.35,3.34a3.3,3.3,0,0,0,2.69,1.63,3.36,3.36,0,0,0,3.34-1.63l1.17.18c-.62.64-.81,1.14-1.56,1.6a4.18,4.18,0,0,1-2.62.73,4.55,4.55,0,0,1-3.13-.88,4.87,4.87,0,0,1,1.85-8.43c1.37-.28,1.23-.26,3.74.07a2.93,2.93,0,0,1,2.56,3.12Zm-.44-2.62a3.18,3.18,0,0,0-2.93,1.78l2.6.07,2.94-.16A3.12,3.12,0,0,0,227.52,217.34Z" transform="translate(-131.55 -196.97)"/><path d="M240.25,226.21a7.22,7.22,0,0,1-4.35-1.74l.35-1.26c.9.82,2.75,2,4,2a2,2,0,0,0,2-1.74c0-.79-1-1.39-1.63-1.76-1.38-.88-3-.24-3-2.6a3,3,0,0,1,3-2.84,4.66,4.66,0,0,1,2,.66l-.51,1.74a3.44,3.44,0,0,0-1.7-.83,1.57,1.57,0,0,0-1.51,1.51c0,1.32,4.38.91,4.38,4.47C243.25,225.46,241.68,226.21,240.25,226.21Z" transform="translate(-131.55 -196.97)"/><path d="M263.82,225.55a15.36,15.36,0,0,1-2,.24c0-.07-.11-2.6-.18-3.43l-.26-3.08-.31-2-.18-1.89-1.1,2-1.67,3.25-1-1.85-1.06-2-.62-1.3-.11,1.78v2l.11,3.56-.48,2.95-1.17-.11-.06-2-.13-2.95-.18-2.84-.13-2.77.13-1.89,2.77-.82c.35.6.93,1.5.93,1.54a27.11,27.11,0,0,1,1.1,3l.74-1.35,1.22-2.15.68-1.23,2.15-.38.55,3.26.38,3.63V223C264,223,263.88,224.53,263.82,225.55Z" transform="translate(-131.55 -196.97)"/><path d="M273.08,226.07a5,5,0,0,1-4.71-5c.13-2.51,2.22-5,4.55-4.45,2.64.6,4.51,1.61,4.47,4.73C277.37,223.9,275.63,226.16,273.08,226.07Zm-.75-7.7A2.61,2.61,0,0,0,269.8,221a2.76,2.76,0,0,0,3.12,2.95c1.65-.15,3-1,3.06-2.66C276,219.45,274.09,218.48,272.33,218.37Z" transform="translate(-131.55 -196.97)"/><path d="M286.76,215.16l-.18,3.85v6.4c-1,.18-1.51.6-2.5.44a3.37,3.37,0,0,1-2.6-1.36,5.79,5.79,0,0,1-.37-3.92,2.79,2.79,0,0,1,1.82-2.4c.9-.3,1.74-.7,2.51,0l.13-2.53.22-3.39,1.06-.33Zm-1.89,4.51a4.86,4.86,0,0,0-1.78,0c-.88.19-1.37,2.06-1.37,2.94a2,2,0,0,0,1.59,2.29,2.28,2.28,0,0,0,1.62-.13Z" transform="translate(-131.55 -196.97)"/><path d="M296.55,219.21a18.73,18.73,0,0,1,.07,3.19,3.75,3.75,0,0,1-1.3,3c-.77.75-1.67.62-2.71.42a2.41,2.41,0,0,1-1.54-.64,1.49,1.49,0,0,1-.22-.48c-.06-.2-.09-.4-.15-.62a5.69,5.69,0,0,1-.27-1.71c0-.55,0-1.15,0-2.07v-2.64H292c-.07,1.69-.29,3.32-.2,5.19a1.86,1.86,0,0,0,1.19,1.91,1.81,1.81,0,0,0,2.11-1.34,6.5,6.5,0,0,0,.31-2c0-.31,0-.62,0-.9a3.48,3.48,0,0,1,.07-.75l.39-2,2,.19.06,1.15Z" transform="translate(-131.55 -196.97)"/><path d="M302.4,225.94l-.13-5.87-.15-8.12,1.1-.09.15,9.37.07,4.76Z" transform="translate(-131.55 -196.97)"/></g></g></g></g></svg>