<svg id="Layer_1" data-name="Layer 1" xmlns="http://www.w3.org/2000/svg" viewBox="0 0 267 45"><defs><style>.cls-1{fill:#e9c46a;}.cls-2{isolation:isolate;}</style></defs><g id="Group_36" data-name="Group 36"><rect id="Rectangle_14" data-name="Rectangle 14" class="cls-1" width="267" height="45" rx="10"/><g id="Group_33" data-name="Group 33"><path id="Icon_awesome-chevron-circle-right" data-name="Icon awesome-chevron-circle-right" d="M345.6,209.33a10.33,10.33,0,1,1-10.32,10.33,10.33,10.33,0,0,1,10.32-10.33Zm4.75,9.62-5.64-5.64a1,1,0,0,0-1.42,0l-.7.71a1,1,0,0,0,0,1.41l4.23,4.23-4.23,4.22a1,1,0,0,0,0,1.41l.7.71a1,1,0,0,0,1.42,0l5.64-5.64a1,1,0,0,0,0-1.41h0Z" transform="translate(-131.55 -196.97)"/><g id="Wissen_testen" data-name="Wissen testen" class="cls-2"><g class="cls-2"><path d="M162.66,225.55a15.36,15.36,0,0,1-2,.24c0-.07-.11-2.6-.17-3.43l-.27-3.08-.31-2-.17-1.89-1.1,2L157,220.68l-1-1.85-1.05-2-.62-1.3-.11,1.78v2l.11,3.56-.48,2.95-1.17-.11-.07-2-.13-2.95-.17-2.84-.14-2.77.14-1.89,2.77-.82c.35.6.92,1.5.92,1.54a25.12,25.12,0,0,1,1.1,3l.75-1.35,1.21-2.15.68-1.23,2.16-.38.55,3.26.37,3.63V223C162.79,223,162.73,224.53,162.66,225.55Z" transform="translate(-131.55 -196.97)"/><path d="M167.74,213.38a.61.61,0,0,1-.37-.75c.09-.35.53-.44.9-.33a.62.62,0,0,1,.31.86A.64.64,0,0,1,167.74,213.38ZM168,226l-.2-4.1.14-4.88,1.18-.13-.06,4.35.06,4.76Z" transform="translate(-131.55 -196.97)"/><path d="M177.22,225.88c-1.38.06-1.36-.53-1.43-1.52s-.15-1.34-.15-2.44l.07-3.35-2.58-.11.07-1.17,1.63.09,1.51,0v0l.09-3.55h1.26l.06,3.28,1.7.18.11,1.17-1.92.15-.17,4c.11.6-.22,1.34.28,1.65s1.48.09,1.94.18l.06,1.34A9.73,9.73,0,0,1,177.22,225.88Z" transform="translate(-131.55 -196.97)"/><path d="M199.64,225.55a15.36,15.36,0,0,1-2,.24c0-.07-.11-2.6-.17-3.43l-.27-3.08-.3-2-.18-1.89-1.1,2L194,220.68l-1-1.85-1-2-.62-1.3-.11,1.78v2l.11,3.56-.48,2.95-1.17-.11-.07-2-.13-2.95-.17-2.84-.14-2.77.14-1.89,2.77-.82c.35.6.92,1.5.92,1.54a25.12,25.12,0,0,1,1.1,3l.75-1.35,1.21-2.15.68-1.23,2.16-.38.55,3.26.37,3.63V223C199.77,223,199.71,224.53,199.64,225.55Z" transform="translate(-131.55 -196.97)"/><path d="M208.9,226.07a5,5,0,0,1-4.71-5c.14-2.51,2.23-5,4.56-4.45,2.64.6,4.51,1.61,4.47,4.73C213.19,223.9,211.46,226.16,208.9,226.07Zm-.74-7.7a2.62,2.62,0,0,0-2.54,2.62,2.78,2.78,0,0,0,3.13,2.95c1.65-.15,3-1,3.06-2.66C211.83,219.45,209.92,218.48,208.16,218.37Z" transform="translate(-131.55 -196.97)"/><path d="M222.59,215.16l-.18,3.85v6.4c-1,.18-1.52.6-2.51.44a3.35,3.35,0,0,1-2.59-1.36,5.85,5.85,0,0,1-.38-3.92,2.8,2.8,0,0,1,1.83-2.4c.9-.3,1.74-.7,2.51,0l.13-2.53.22-3.39,1.06-.33Zm-1.89,4.51a4.91,4.91,0,0,0-1.79,0c-.88.19-1.36,2.06-1.36,2.94a2,2,0,0,0,1.58,2.29,2.31,2.31,0,0,0,1.63-.13Z" transform="translate(-131.55 -196.97)"/><path d="M232.38,219.21a19.84,19.84,0,0,1,.06,3.19,3.74,3.74,0,0,1-1.29,3c-.78.75-1.68.62-2.71.42a2.41,2.41,0,0,1-1.54-.64,1.3,1.3,0,0,1-.22-.48c-.07-.2-.09-.4-.16-.62a6,6,0,0,1-.26-1.71c0-.55,0-1.15,0-2.07v-2.64h1.61c-.07,1.69-.29,3.32-.2,5.19a1.85,1.85,0,0,0,1.19,1.91,1.81,1.81,0,0,0,2.11-1.34,6.5,6.5,0,0,0,.31-2c0-.31,0-.62,0-.9a3.48,3.48,0,0,1,.07-.75l.39-2,2,.19.06,1.15Z" transform="translate(-131.55 -196.97)"/><path d="M238.23,225.94l-.13-5.87-.16-8.12,1.1-.09.16,9.37.06,4.76Z" transform="translate(-131.55 -196.97)"/><path d="M254.07,226.21a7.27,7.27,0,0,1-4.36-1.74l.35-1.26c.91.82,2.75,2,4,2a2,2,0,0,0,2-1.74c0-.79-1-1.39-1.63-1.76-1.39-.88-3-.24-3-2.6a3,3,0,0,1,3-2.84,4.57,4.57,0,0,1,2,.66l-.5,1.74a3.44,3.44,0,0,0-1.7-.83,1.58,1.58,0,0,0-1.52,1.51c0,1.32,4.38.91,4.38,4.47C257.06,225.46,255.5,226.21,254.07,226.21Z" transform="translate(-131.55 -196.97)"/><path d="M264.72,225.88c-1.39.06-1.37-.53-1.43-1.52a21.89,21.89,0,0,1-.16-2.44l.07-3.35-2.58-.11.07-1.17,1.63.09,1.52,0v0l.08-3.55h1.26l.06,3.28,1.7.18.11,1.17-1.92.15-.17,4c.11.6-.22,1.34.28,1.65s1.48.09,1.94.18l.07,1.34A9.77,9.77,0,0,1,264.72,225.88Z" transform="translate(-131.55 -196.97)"/><path d="M279.13,226l-1.76,0-.05-1.1-.39,0s-1.9,1.49-3.3,1.4c-1.68-.08-3.3,0-3.48-2.55a7.17,7.17,0,0,1,1.19-4.53,3.7,3.7,0,0,1,3.21-1.72c1.41,0,3.3,1.45,3.3,1.45l.24-1.56,1,0,.1,4Zm-2.73-4.4-.09-2-.92-.93s-2.2-.44-3.13.93a3.6,3.6,0,0,0-.92,2.68c.13,2.51,1.19,2.95,2.37,2.95a10.43,10.43,0,0,0,2.69-1.23Z" transform="translate(-131.55 -196.97)"/><path d="M289.05,218.81c-.79-.06-1.15-.28-1.81-.08a2.34,2.34,0,0,0-1.71,1.67l-.09,5.7a4.54,4.54,0,0,1-1.67-.29s-.18-3-.18-3,.05-1.71.05-2.81v-3.15l.9-.29.22,2.16a3.48,3.48,0,0,1,2.31-1.47,3.42,3.42,0,0,1,2.31.22Z" transform="translate(-131.55 -196.97)"/><path d="M296.35,225.88c-1.38.06-1.36-.53-1.43-1.52a21.89,21.89,0,0,1-.15-2.44l.06-3.35-2.57-.11.07-1.17,1.62.09,1.52,0v0l.09-3.55h1.25l.07,3.28,1.69.18.11,1.17-1.91.15-.18,4c.11.6-.22,1.34.29,1.65s1.47.09,1.94.18l.06,1.34A9.73,9.73,0,0,1,296.35,225.88Z" transform="translate(-131.55 -196.97)"/><path d="M307.73,220h-4c0,1.36-.39,2.22.36,3.34a3.27,3.27,0,0,0,2.68,1.63,3.36,3.36,0,0,0,3.34-1.63l1.17.18c-.62.64-.81,1.14-1.56,1.6a4.18,4.18,0,0,1-2.62.73,4.52,4.52,0,0,1-3.12-.88,4.86,4.86,0,0,1,1.84-8.43c1.37-.28,1.24-.26,3.74.07a2.93,2.93,0,0,1,2.56,3.12Zm-.44-2.62a3.19,3.19,0,0,0-2.93,1.78l2.6.07,2.94-.16A3.12,3.12,0,0,0,307.29,217.34Z" transform="translate(-131.55 -196.97)"/><path d="M322.77,225.83l-.3-4.68a2.62,2.62,0,0,0-2.58-2,2.69,2.69,0,0,0-2.53,1.65,7.92,7.92,0,0,0-.5,2.56c-.05.83,0,1.69-.11,2.46l-1,0v-3l.05-2.91.11-2.49.68-.17.11,1.56a3.62,3.62,0,0,1,3.19-1.28,3.68,3.68,0,0,1,3,1.55,5.27,5.27,0,0,1,1,3.08l.16,3.52Z" transform="translate(-131.55 -196.97)"/></g></g></g></g></svg>