<svg id="Layer_1" data-name="Layer 1" xmlns="http://www.w3.org/2000/svg" viewBox="0 0 267.86 45.73"><defs><style>.cls-1{fill:#e9c46a;}.cls-2{isolation:isolate;}</style></defs><path id="Path_9" data-name="Path 9" class="cls-1" d="M129.59,58.81H382.93a7.26,7.26,0,0,1,7.26,7.26h0V97.28a7.26,7.26,0,0,1-7.26,7.26H129.59a7.26,7.26,0,0,1-7.26-7.26V66.07a7.26,7.26,0,0,1,7.26-7.26Z" transform="translate(-122.33 -58.81)"/><g id="Group_32" data-name="Group 32"><g id="Übersicht" class="cls-2"><g class="cls-2"><path d="M226.78,71.87a.57.57,0,0,1-.34-.68.62.62,0,0,1,.82-.3.54.54,0,0,1,.28.78A.57.57,0,0,1,226.78,71.87Zm4.54,15.94A3.87,3.87,0,0,1,227,84.23l-.12-7.84,1.44-.2,0,4,.24,3.58c.18.64.1,1.62,2.38,2,1.14.18,2.21-1.56,2-2.94l-.33-3-.11-3.36,1.71-.76.34,3.66.12,4.28C234.83,86.77,233.38,87.59,231.32,87.81Zm-.86-16a1,1,0,0,1-.3-1,.62.62,0,0,1,.82-.3.54.54,0,0,1,.28.78C231.12,71.63,230.74,72,230.46,71.85Z" transform="translate(-122.33 -58.81)"/><path d="M242.36,86.93a3.58,3.58,0,0,1-4,.82l0-3.08,0-4.16-.06-2.8.12-2.28,1.22-.42-.06,3.66v3a3.56,3.56,0,0,1,1.3-.68,3.73,3.73,0,0,1,1.76.48C243.66,82.55,243.62,85.65,242.36,86.93Zm-2.08-4.32,0,4.52c.78-.34,2.26-.52,2.1-2.46C242.32,83.79,242,82.27,240.28,82.61Z" transform="translate(-122.33 -58.81)"/><path d="M251.66,82.47H248c0,1.24-.36,2,.32,3A3,3,0,0,0,250.8,87a3.06,3.06,0,0,0,3-1.48l1.06.16c-.56.58-.74,1-1.42,1.46a3.84,3.84,0,0,1-2.38.66,4.12,4.12,0,0,1-2.84-.8,4.42,4.42,0,0,1,1.68-7.66c1.24-.26,1.12-.24,3.4.06a2.67,2.67,0,0,1,2.33,2.84Zm-.4-2.38a2.89,2.89,0,0,0-2.66,1.62l2.36.06,2.68-.14A2.85,2.85,0,0,0,251.26,80.09Z" transform="translate(-122.33 -58.81)"/><path d="M264.38,81.43c-.72-.06-1-.26-1.64-.08a2.14,2.14,0,0,0-1.56,1.52l-.08,5.18a4,4,0,0,1-1.52-.26s-.16-2.74-.16-2.76,0-1.56,0-2.56V79.61l.82-.26.2,2a3.54,3.54,0,0,1,4.2-1.14Z" transform="translate(-122.33 -58.81)"/><path d="M270.56,88.15a6.6,6.6,0,0,1-4-1.58l.32-1.14a7.06,7.06,0,0,0,3.62,1.84,1.83,1.83,0,0,0,1.8-1.58c0-.72-.94-1.26-1.48-1.6-1.26-.8-2.68-.22-2.68-2.36a2.7,2.7,0,0,1,2.72-2.58,4.1,4.1,0,0,1,1.78.6l-.46,1.58a3.07,3.07,0,0,0-1.54-.76A1.44,1.44,0,0,0,269.3,82c0,1.2,4,.82,4,4.06C273.29,87.47,271.86,88.15,270.56,88.15Z" transform="translate(-122.33 -58.81)"/><path d="M277.68,76.49a.55.55,0,0,1-.34-.68c.08-.32.48-.4.82-.3a.56.56,0,0,1,.28.78A.57.57,0,0,1,277.68,76.49Zm.2,11.46-.18-3.72.12-4.44,1.08-.12-.06,4L278.9,88Z" transform="translate(-122.33 -58.81)"/><path d="M290.14,81.83a24.4,24.4,0,0,0-3.34,0c-1.6.18-2.9.56-2.92,1.9a1.91,1.91,0,0,0,.92,1.58,6,6,0,0,0,.56.44c1.44,1.1,4.66.44,4.7.42l-.14,1.32a10.48,10.48,0,0,1-3.2.44,4.46,4.46,0,0,1-3-1,3.53,3.53,0,0,1-1.32-2.76,3.71,3.71,0,0,1,1.82-3.32,5,5,0,0,1,3.18-.82,13.11,13.11,0,0,1,3.08.48Z" transform="translate(-122.33 -58.81)"/><path d="M299.68,88.07l-.28-2.86a2.08,2.08,0,0,0-2.12-2.08c-1.22.1-1.68,1.4-1.72,2.54l0,2.32-1.4,0L294,85.21V81.57l.06-3.2L294.2,75l1.24-.24L295.38,77l-.06,2.62,0,2.88c1.2-.44,1.6-1.32,2.86-1.08a2.65,2.65,0,0,1,2.2,1.46l.12,4.92Z" transform="translate(-122.33 -58.81)"/><path d="M307.44,87.85c-1.26.06-1.24-.48-1.3-1.38a20.35,20.35,0,0,1-.14-2.22l.06-3-2.34-.1.06-1.06,1.48.08,1.38,0v0l.08-3.22h1.14l.06,3,1.54.16.1,1.06-1.74.14-.16,3.62c.1.54-.2,1.22.26,1.5s1.34.08,1.76.16l.06,1.22A8.49,8.49,0,0,1,307.44,87.85Z" transform="translate(-122.33 -58.81)"/></g></g><path id="Icon_material-format-list-bulleted" data-name="Icon material-format-list-bulleted" d="M186.11,79.62A1.84,1.84,0,1,0,188,81.46a1.84,1.84,0,0,0-1.84-1.84Zm0-7.34A1.84,1.84,0,1,0,188,74.12a1.83,1.83,0,0,0-1.84-1.84Zm0,14.69A1.84,1.84,0,1,0,188,88.8,1.83,1.83,0,0,0,186.11,87ZM189.78,90h17.14V87.58H189.78Zm0-7.34h17.14V80.24H189.78Zm0-9.79v2.44h17.14V72.89Z" transform="translate(-122.33 -58.81)"/></g></svg>